# xmcd
#
# Track frame offsets:
#	150
#	12546
#	26361
#	39367
#	50715
#	63370
#	74083
#	87136
#	97642
#	109212
#
# Disc length: 1618 seconds
#
# Revision: 1
# Processed by: cddbd v1.5.2PL0 Copyright (c) Steve Scherf et al.
# Submitted via: audiograbber 1.83.01
#
DISCID=7d06500a
DTITLE=George Jones - Will You Visit Me On Sunday
DYEAR=1970
DGENRE=Country
TTITLE0=Rosie Bokay
TTITLE1=All I Have To Offer You Is Me
TTITLE2=Image Of Me
TTITLE3=I Stayed Long Enough
TTITLE4=These Hands
TTITLE5=How Much Pain Can One Man Stand
TTITLE6=Will You Visit Me On Sunday
TTITLE7=I'm Finally Over You
TTITLE8=The Fortune I've Gone Through
TTITLE9=She's As Close As I Can Get
EXTD=
EXTT0=
EXTT1=
EXTT2=
EXTT3=
EXTT4=
EXTT5=
EXTT6=
EXTT7=
EXTT8=
EXTT9=
PLAYORDER=
